<svg width="16" height="16" viewBox="0 0 16 16" fill="none" xmlns="http://www.w3.org/2000/svg">
<g clip-path="url(#clip0)">
<path d="M15.9895 2.38613C15.9762 2.34043 15.9509 2.29914 15.9162 2.26658C15.8815 2.23402 15.8387 2.2114 15.7923 2.20108L14.1656 1.83358L13.7981 0.206877C13.7876 0.160552 13.765 0.11788 13.7324 0.0833151C13.6998 0.04875 13.6586 0.0235593 13.613 0.0103724C13.5673 -0.00281446 13.519 -0.00351398 13.473 0.00834692C13.4271 0.0202078 13.3851 0.0441942 13.3516 0.0778023L11.4807 1.949C9.89748 0.99367 8.01938 0.650858 6.20078 0.985259C4.38219 1.31966 2.74888 2.30814 1.6091 3.76417C0.46932 5.2202 -0.0981041 7.04306 0.013911 8.88875C0.125926 10.7344 0.909633 12.4753 2.21713 13.7828C3.52463 15.0903 5.26549 15.874 7.11118 15.986C8.95687 16.098 10.7797 15.5306 12.2358 14.3908C13.6918 13.251 14.6803 11.6177 15.0147 9.79914C15.3491 7.98055 15.0063 6.10245 14.0509 4.51927L15.9226 2.64761C15.9561 2.61398 15.98 2.57199 15.9917 2.526C16.0035 2.48001 16.0027 2.43171 15.9895 2.38613ZM14.6083 8.43109C14.6081 9.98069 14.0965 11.4869 13.1529 12.7161C12.2093 13.9453 10.8865 14.8287 9.38958 15.2294C7.89267 15.63 6.30538 15.5255 4.87394 14.932C3.44251 14.3385 2.24694 13.2892 1.4727 11.9469C0.698457 10.6045 0.388827 9.04424 0.591839 7.508C0.794851 5.97175 1.49916 4.54544 2.5955 3.45032C3.69184 2.3552 5.11894 1.65248 6.65541 1.45118C8.19188 1.24988 9.75183 1.56125 11.0933 2.33698L10.2341 3.19622C10.2267 3.20462 10.2198 3.21349 10.2136 3.22276C8.97291 2.59113 7.54764 2.42273 6.19394 2.74784C4.84024 3.07294 3.64689 3.87023 2.82838 4.9964C2.00987 6.12256 1.61989 7.50375 1.72853 8.89169C1.83716 10.2796 2.4373 11.5833 3.42105 12.5684C4.40481 13.5535 5.70768 14.1554 7.09548 14.266C8.48328 14.3765 9.86499 13.9884 10.9923 13.1714C12.1195 12.3544 12.9185 11.1622 13.2454 9.8089C13.5724 8.45565 13.4059 7.03015 12.776 5.78863C12.7857 5.78173 12.795 5.77418 12.8037 5.76603L13.6629 4.90679C14.2834 5.9776 14.6096 7.1935 14.6083 8.43109ZM12.1461 5.74434C12.7979 6.85711 13.0219 8.16929 12.7761 9.4353C12.5304 10.7013 11.8317 11.8344 10.8108 12.6224C9.78998 13.4105 8.51693 13.7995 7.22995 13.7168C5.94297 13.634 4.73026 13.085 3.81878 12.1727C2.9073 11.2603 2.35953 10.0471 2.27799 8.76003C2.19644 7.47297 2.58671 6.2003 3.37576 5.1802C4.1648 4.16011 5.29853 3.46251 6.56478 3.21796C7.83102 2.97341 9.14299 3.19868 10.2551 3.8516L10.5347 5.08986L10.2665 5.35802C9.46683 4.65579 8.42539 4.29208 7.3624 4.34378C6.29942 4.39548 5.29819 4.85854 4.57043 5.63506C3.84267 6.41157 3.44541 7.44068 3.46265 8.50478C3.47988 9.56889 3.91027 10.5846 4.66281 11.3371C5.41534 12.0897 6.43104 12.52 7.49514 12.5373C8.55925 12.5545 9.58835 12.1573 10.3649 11.4295C11.1414 10.7017 11.6044 9.70051 11.6561 8.63752C11.7078 7.57453 11.3441 6.5331 10.6419 5.73342L10.9101 5.46526L12.1461 5.74434ZM8.71019 8.43109C8.71112 8.68482 8.6278 8.93169 8.47328 9.13295C8.31876 9.33421 8.1018 9.47848 7.85643 9.54312C7.61106 9.60776 7.35118 9.5891 7.11756 9.49009C6.88394 9.39108 6.6898 9.2173 6.56561 8.99604C6.44142 8.77477 6.3942 8.51853 6.43136 8.26753C6.46853 8.01653 6.58797 7.78497 6.77095 7.60919C6.95393 7.4334 7.19009 7.32334 7.44238 7.29627C7.69467 7.2692 7.94881 7.32665 8.16492 7.45962L7.38107 8.24347C7.35572 8.26796 7.33551 8.29725 7.3216 8.32964C7.3077 8.36202 7.30038 8.39685 7.30008 8.4321C7.29978 8.46734 7.30651 8.50229 7.31986 8.53491C7.33321 8.56752 7.35293 8.59716 7.37785 8.62207C7.40278 8.64699 7.43242 8.66669 7.46504 8.68003C7.49767 8.69337 7.53262 8.70008 7.56786 8.69977C7.60311 8.69945 7.63793 8.69213 7.67032 8.67821C7.7027 8.66429 7.73198 8.64406 7.75646 8.61871L8.54031 7.83486C8.65129 8.01393 8.71012 8.22041 8.71019 8.43109ZM8.54698 7.07755C8.20501 6.82984 7.78225 6.72009 7.36297 6.77015C6.94368 6.82022 6.55866 7.02643 6.28462 7.34769C6.01058 7.66895 5.86765 8.08167 5.88432 8.50361C5.90098 8.92554 6.07602 9.3257 6.37455 9.62435C6.67307 9.923 7.07316 10.0982 7.49509 10.115C7.91702 10.1319 8.3298 9.98911 8.65117 9.7152C8.97254 9.44129 9.17891 9.05635 9.22914 8.63708C9.27938 8.21782 9.16979 7.79502 8.92222 7.45294L10.2658 6.10942C10.8677 6.80879 11.1752 7.71428 11.1235 8.6356C11.0718 9.55693 10.6649 10.4223 9.98844 11.0499C9.31197 11.6776 8.41855 12.0185 7.49595 12.0011C6.57334 11.9838 5.69338 11.6094 5.04102 10.9568C4.38865 10.3042 4.01467 9.42406 3.99767 8.50145C3.98068 7.57883 4.32199 6.68555 4.94987 6.00933C5.57776 5.33312 6.44333 4.92662 7.36467 4.87528C8.28601 4.82394 9.19138 5.13175 9.89051 5.73402L8.54698 7.07755ZM13.5286 4.29039L12.5324 5.28643L12.383 5.25276L12.3772 5.2514L11.0478 4.95214L10.7127 3.46832L13.387 0.793551L13.6854 2.11402C13.6965 2.16298 13.7212 2.20779 13.7566 2.24328C13.7921 2.27877 13.8369 2.30347 13.8859 2.31454L15.2064 2.61288L13.5286 4.29039Z" fill="white"/>
</g>
<defs>
<clipPath id="clip0">
<rect width="16" height="16" fill="white"/>
</clipPath>
</defs>
</svg>
