<svg width="16" height="16" viewBox="0 0 16 16" fill="none" xmlns="http://www.w3.org/2000/svg">
<g clip-path="url(#clip0)">
<path d="M12.0261 0L11.5682 0.457878L13.7965 2.6862H4.34545C2.55477 2.6862 1.09802 4.14298 1.09802 5.93346V7.95228H1.74559V5.93346C1.74559 4.49997 2.91193 3.33379 4.34545 3.33379H13.7965L11.5682 5.56211L12.0261 6.01999L15.0361 3.01001L12.0261 0Z" fill="white"/>
<path d="M14.2544 8.04761V10.0664C14.2544 11.4999 13.0881 12.6662 11.6546 12.6662H2.20349L4.43181 10.4378L3.97393 9.97991L0.963989 12.99L3.97393 16L4.43181 15.5421L2.20349 13.3138H11.6546C13.4453 13.3138 14.902 11.8571 14.902 10.0664V8.04761H14.2544Z" fill="white"/>
</g>
<defs>
<clipPath id="clip0">
<rect width="16" height="16" fill="white"/>
</clipPath>
</defs>
</svg>
